<svg width="110" height="27" viewBox="0 0 110 27" fill="none" xmlns="http://www.w3.org/2000/svg">
<path d="M6.21 2.97856C7.97 2.97856 9.514 3.32256 10.842 4.01056C12.186 4.69856 13.218 5.68256 13.938 6.96256C14.674 8.22656 15.042 9.69856 15.042 11.3786C15.042 13.0586 14.674 14.5306 13.938 15.7946C13.218 17.0426 12.186 18.0106 10.842 18.6986C9.514 19.3866 7.97 19.7306 6.21 19.7306H0.353998V2.97856H6.21ZM6.09 16.8746C7.85 16.8746 9.21 16.3946 10.17 15.4346C11.13 14.4746 11.61 13.1226 11.61 11.3786C11.61 9.63456 11.13 8.27456 10.17 7.29856C9.21 6.30656 7.85 5.81056 6.09 5.81056H3.714V16.8746H6.09ZM19.2611 4.85056C18.6691 4.85056 18.1731 4.66656 17.7731 4.29856C17.3891 3.91456 17.1971 3.44256 17.1971 2.88256C17.1971 2.32256 17.3891 1.85856 17.7731 1.49056C18.1731 1.10656 18.6691 0.914559 19.2611 0.914559C19.8531 0.914559 20.3411 1.10656 20.7251 1.49056C21.1251 1.85856 21.3251 2.32256 21.3251 2.88256C21.3251 3.44256 21.1251 3.91456 20.7251 4.29856C20.3411 4.66656 19.8531 4.85056 19.2611 4.85056ZM20.9171 6.43456V19.7306H17.5571V6.43456H20.9171ZM29.4448 6.21856C30.4368 6.21856 31.3088 6.41856 32.0608 6.81856C32.8128 7.20256 33.4048 7.70656 33.8368 8.33056V6.43456H37.2208V19.8266C37.2208 21.0586 36.9728 22.1546 36.4768 23.1146C35.9808 24.0906 35.2368 24.8586 34.2448 25.4186C33.2528 25.9946 32.0528 26.2826 30.6448 26.2826C28.7568 26.2826 27.2048 25.8426 25.9888 24.9626C24.7888 24.0826 24.1088 22.8826 23.9488 21.3626H27.2848C27.4608 21.9706 27.8368 22.4506 28.4128 22.8026C29.0048 23.1706 29.7168 23.3546 30.5488 23.3546C31.5248 23.3546 32.3168 23.0586 32.9248 22.4666C33.5328 21.8906 33.8368 21.0106 33.8368 19.8266V17.7626C33.4048 18.3866 32.8048 18.9066 32.0368 19.3226C31.2848 19.7386 30.4208 19.9466 29.4448 19.9466C28.3248 19.9466 27.3008 19.6586 26.3728 19.0826C25.4448 18.5066 24.7088 17.6986 24.1648 16.6586C23.6368 15.6026 23.3728 14.3946 23.3728 13.0346C23.3728 11.6906 23.6368 10.4986 24.1648 9.45856C24.7088 8.41856 25.4368 7.61856 26.3488 7.05856C27.2768 6.49856 28.3088 6.21856 29.4448 6.21856ZM33.8368 13.0826C33.8368 12.2666 33.6768 11.5706 33.3568 10.9946C33.0368 10.4026 32.6048 9.95456 32.0608 9.65056C31.5168 9.33056 30.9328 9.17056 30.3088 9.17056C29.6848 9.17056 29.1088 9.32256 28.5808 9.62656C28.0528 9.93056 27.6208 10.3786 27.2848 10.9706C26.9648 11.5466 26.8048 12.2346 26.8048 13.0346C26.8048 13.8346 26.9648 14.5386 27.2848 15.1466C27.6208 15.7386 28.0528 16.1946 28.5808 16.5146C29.1248 16.8346 29.7008 16.9946 30.3088 16.9946C30.9328 16.9946 31.5168 16.8426 32.0608 16.5386C32.6048 16.2186 33.0368 15.7706 33.3568 15.1946C33.6768 14.6026 33.8368 13.8986 33.8368 13.0826ZM42.2064 4.85056C41.6144 4.85056 41.1184 4.66656 40.7184 4.29856C40.3344 3.91456 40.1424 3.44256 40.1424 2.88256C40.1424 2.32256 40.3344 1.85856 40.7184 1.49056C41.1184 1.10656 41.6144 0.914559 42.2064 0.914559C42.7984 0.914559 43.2864 1.10656 43.6704 1.49056C44.0704 1.85856 44.2704 2.32256 44.2704 2.88256C44.2704 3.44256 44.0704 3.91456 43.6704 4.29856C43.2864 4.66656 42.7984 4.85056 42.2064 4.85056ZM43.8624 6.43456V19.7306H40.5024V6.43456H43.8624ZM46.3181 13.0826C46.3181 11.7066 46.5981 10.5066 47.1581 9.48256C47.7181 8.44256 48.4941 7.64256 49.4861 7.08256C50.4781 6.50656 51.6141 6.21856 52.8941 6.21856C54.5421 6.21856 55.9021 6.63456 56.9741 7.46656C58.0621 8.28256 58.7901 9.43456 59.1581 10.9226H55.5341C55.3421 10.3466 55.0141 9.89856 54.5501 9.57856C54.1021 9.24256 53.5421 9.07456 52.8701 9.07456C51.9101 9.07456 51.1501 9.42656 50.5901 10.1306C50.0301 10.8186 49.7501 11.8026 49.7501 13.0826C49.7501 14.3466 50.0301 15.3306 50.5901 16.0346C51.1501 16.7226 51.9101 17.0666 52.8701 17.0666C54.2301 17.0666 55.1181 16.4586 55.5341 15.2426H59.1581C58.7901 16.6826 58.0621 17.8266 56.9741 18.6746C55.8861 19.5226 54.5261 19.9466 52.8941 19.9466C51.6141 19.9466 50.4781 19.6666 49.4861 19.1066C48.4941 18.5306 47.7181 17.7306 47.1581 16.7066C46.5981 15.6666 46.3181 14.4586 46.3181 13.0826ZM67.5236 19.9466C66.2436 19.9466 65.0916 19.6666 64.0676 19.1066C63.0436 18.5306 62.2356 17.7226 61.6436 16.6826C61.0676 15.6426 60.7796 14.4426 60.7796 13.0826C60.7796 11.7226 61.0756 10.5226 61.6676 9.48256C62.2756 8.44256 63.0996 7.64256 64.1396 7.08256C65.1796 6.50656 66.3396 6.21856 67.6196 6.21856C68.8996 6.21856 70.0596 6.50656 71.0996 7.08256C72.1396 7.64256 72.9556 8.44256 73.5476 9.48256C74.1556 10.5226 74.4596 11.7226 74.4596 13.0826C74.4596 14.4426 74.1476 15.6426 73.5236 16.6826C72.9156 17.7226 72.0836 18.5306 71.0276 19.1066C69.9876 19.6666 68.8196 19.9466 67.5236 19.9466ZM67.5236 17.0186C68.1316 17.0186 68.6996 16.8746 69.2276 16.5866C69.7716 16.2826 70.2036 15.8346 70.5236 15.2426C70.8436 14.6506 71.0036 13.9306 71.0036 13.0826C71.0036 11.8186 70.6676 10.8506 69.9956 10.1786C69.3396 9.49056 68.5316 9.14656 67.5716 9.14656C66.6116 9.14656 65.8036 9.49056 65.1476 10.1786C64.5076 10.8506 64.1876 11.8186 64.1876 13.0826C64.1876 14.3466 64.4996 15.3226 65.1236 16.0106C65.7636 16.6826 66.5636 17.0186 67.5236 17.0186ZM78.6283 4.85056C78.0363 4.85056 77.5403 4.66656 77.1403 4.29856C76.7563 3.91456 76.5643 3.44256 76.5643 2.88256C76.5643 2.32256 76.7563 1.85856 77.1403 1.49056C77.5403 1.10656 78.0363 0.914559 78.6283 0.914559C79.2203 0.914559 79.7083 1.10656 80.0923 1.49056C80.4923 1.85856 80.6923 2.32256 80.6923 2.88256C80.6923 3.44256 80.4923 3.91456 80.0923 4.29856C79.7083 4.66656 79.2203 4.85056 78.6283 4.85056ZM80.2843 6.43456V19.7306H76.9243V6.43456H80.2843ZM90.972 6.24256C92.556 6.24256 93.836 6.74656 94.812 7.75456C95.788 8.74656 96.276 10.1386 96.276 11.9306V19.7306H92.916V12.3866C92.916 11.3306 92.652 10.5226 92.124 9.96256C91.596 9.38656 90.876 9.09856 89.964 9.09856C89.036 9.09856 88.3 9.38656 87.756 9.96256C87.228 10.5226 86.964 11.3306 86.964 12.3866V19.7306H83.604V6.43456H86.964V8.09056C87.412 7.51456 87.98 7.06656 88.668 6.74656C89.372 6.41056 90.14 6.24256 90.972 6.24256ZM104.559 19.9466C103.471 19.9466 102.495 19.7546 101.631 19.3706C100.767 18.9706 100.079 18.4346 99.5672 17.7626C99.0712 17.0906 98.7992 16.3466 98.7512 15.5306H102.135C102.199 16.0426 102.447 16.4666 102.879 16.8026C103.327 17.1386 103.879 17.3066 104.535 17.3066C105.175 17.3066 105.671 17.1786 106.023 16.9226C106.391 16.6666 106.575 16.3386 106.575 15.9386C106.575 15.5066 106.351 15.1866 105.903 14.9786C105.471 14.7546 104.775 14.5146 103.815 14.2586C102.823 14.0186 102.007 13.7706 101.367 13.5146C100.743 13.2586 100.199 12.8666 99.7352 12.3386C99.2872 11.8106 99.0632 11.0986 99.0632 10.2026C99.0632 9.46656 99.2712 8.79456 99.6872 8.18656C100.119 7.57856 100.727 7.09856 101.511 6.74656C102.311 6.39456 103.247 6.21856 104.319 6.21856C105.903 6.21856 107.167 6.61856 108.111 7.41856C109.055 8.20256 109.575 9.26656 109.671 10.6106H106.455C106.407 10.0826 106.183 9.66656 105.783 9.36256C105.399 9.04256 104.879 8.88256 104.223 8.88256C103.615 8.88256 103.143 8.99456 102.807 9.21856C102.487 9.44256 102.327 9.75456 102.327 10.1546C102.327 10.6026 102.551 10.9466 102.999 11.1866C103.447 11.4106 104.143 11.6426 105.087 11.8826C106.047 12.1226 106.839 12.3706 107.463 12.6266C108.087 12.8826 108.623 13.2826 109.071 13.8266C109.535 14.3546 109.775 15.0586 109.791 15.9386C109.791 16.7066 109.575 17.3946 109.143 18.0026C108.727 18.6106 108.119 19.0906 107.319 19.4426C106.535 19.7786 105.615 19.9466 104.559 19.9466Z" fill="url(#paint0_linear_1_3331)"/>
<defs>
<linearGradient id="paint0_linear_1_3331" x1="-1.302" y1="29.7306" x2="19.5225" y2="-35.6351" gradientUnits="userSpaceOnUse">
<stop stop-color="#02C3BD"/>
<stop offset="1" stop-color="#5899FF"/>
<stop offset="1" stop-color="#50BEBB"/>
</linearGradient>
</defs>
</svg>
